<mxfile host="app.diagrams.net" modified="2023-10-02T15:12:02.111Z" agent="Mozilla/5.0 (Windows NT 10.0; Win64; x64) AppleWebKit/537.36 (KHTML, like Gecko) Chrome/117.0.0.0 Safari/537.36" etag="392z3RnryoVZufieOQOd" version="22.0.0" type="github">
  <diagram name="Page-1" id="VIxuaLZ3ZZiyrBkaiSTJ">
    <mxGraphModel dx="1900" dy="574" grid="1" gridSize="10" guides="1" tooltips="1" connect="1" arrows="1" fold="1" page="1" pageScale="1" pageWidth="850" pageHeight="1100" math="0" shadow="0">
      <root>
        <mxCell id="0" />
        <mxCell id="1" parent="0" />
        <mxCell id="T1PkeN0rb3LB9wRM_9mk-1" value="" style="rounded=0;whiteSpace=wrap;html=1;" vertex="1" parent="1">
          <mxGeometry x="-135" y="50" width="265" height="450" as="geometry" />
        </mxCell>
        <mxCell id="SYVp2LvqQkuV6gOD7tC8-35" value="" style="rounded=0;whiteSpace=wrap;html=1;" parent="1" vertex="1">
          <mxGeometry x="150" y="50" width="880" height="450" as="geometry" />
        </mxCell>
        <mxCell id="SYVp2LvqQkuV6gOD7tC8-29" value="" style="edgeStyle=orthogonalEdgeStyle;rounded=0;orthogonalLoop=1;jettySize=auto;html=1;" parent="1" source="SYVp2LvqQkuV6gOD7tC8-1" target="SYVp2LvqQkuV6gOD7tC8-12" edge="1">
          <mxGeometry relative="1" as="geometry" />
        </mxCell>
        <mxCell id="SYVp2LvqQkuV6gOD7tC8-1" value="Agent" style="shape=umlActor;verticalLabelPosition=bottom;verticalAlign=top;html=1;outlineConnect=0;" parent="1" vertex="1">
          <mxGeometry x="-90" y="60" width="30" height="60" as="geometry" />
        </mxCell>
        <mxCell id="SYVp2LvqQkuV6gOD7tC8-30" value="" style="edgeStyle=orthogonalEdgeStyle;rounded=0;orthogonalLoop=1;jettySize=auto;html=1;" parent="1" source="SYVp2LvqQkuV6gOD7tC8-3" target="SYVp2LvqQkuV6gOD7tC8-12" edge="1">
          <mxGeometry relative="1" as="geometry" />
        </mxCell>
        <mxCell id="SYVp2LvqQkuV6gOD7tC8-3" value="Operator&lt;br&gt;" style="shape=umlActor;verticalLabelPosition=bottom;verticalAlign=top;html=1;outlineConnect=0;" parent="1" vertex="1">
          <mxGeometry x="-90" y="212" width="30" height="60" as="geometry" />
        </mxCell>
        <mxCell id="SYVp2LvqQkuV6gOD7tC8-31" value="" style="edgeStyle=orthogonalEdgeStyle;rounded=0;orthogonalLoop=1;jettySize=auto;html=1;" parent="1" source="SYVp2LvqQkuV6gOD7tC8-4" target="SYVp2LvqQkuV6gOD7tC8-12" edge="1">
          <mxGeometry relative="1" as="geometry" />
        </mxCell>
        <mxCell id="SYVp2LvqQkuV6gOD7tC8-4" value="User" style="shape=umlActor;verticalLabelPosition=bottom;verticalAlign=top;html=1;outlineConnect=0;" parent="1" vertex="1">
          <mxGeometry x="-90" y="380" width="30" height="60" as="geometry" />
        </mxCell>
        <mxCell id="SYVp2LvqQkuV6gOD7tC8-9" value="" style="edgeStyle=orthogonalEdgeStyle;rounded=0;orthogonalLoop=1;jettySize=auto;html=1;" parent="1" source="SYVp2LvqQkuV6gOD7tC8-7" target="SYVp2LvqQkuV6gOD7tC8-8" edge="1">
          <mxGeometry relative="1" as="geometry" />
        </mxCell>
        <mxCell id="SYVp2LvqQkuV6gOD7tC8-7" value="Relational Data" style="shape=cylinder3;whiteSpace=wrap;html=1;boundedLbl=1;backgroundOutline=1;size=15;" parent="1" vertex="1">
          <mxGeometry x="890" y="230" width="60" height="80" as="geometry" />
        </mxCell>
        <mxCell id="SYVp2LvqQkuV6gOD7tC8-8" value="Unstructured Data" style="sketch=0;outlineConnect=0;fontColor=#232F3E;gradientColor=none;fillColor=#7AA116;strokeColor=none;dashed=0;verticalLabelPosition=bottom;verticalAlign=top;align=center;html=1;fontSize=12;fontStyle=0;aspect=fixed;pointerEvents=1;shape=mxgraph.aws4.bucket;" parent="1" vertex="1">
          <mxGeometry x="902.5" y="340" width="47.5" height="49.4" as="geometry" />
        </mxCell>
        <mxCell id="SYVp2LvqQkuV6gOD7tC8-19" value="" style="edgeStyle=orthogonalEdgeStyle;rounded=0;orthogonalLoop=1;jettySize=auto;html=1;" parent="1" source="SYVp2LvqQkuV6gOD7tC8-11" target="SYVp2LvqQkuV6gOD7tC8-13" edge="1">
          <mxGeometry relative="1" as="geometry" />
        </mxCell>
        <mxCell id="SYVp2LvqQkuV6gOD7tC8-11" value="" style="sketch=0;pointerEvents=1;shadow=0;dashed=0;html=1;strokeColor=none;fillColor=#505050;labelPosition=center;verticalLabelPosition=bottom;verticalAlign=top;outlineConnect=0;align=center;shape=mxgraph.office.servers.reverse_proxy;" parent="1" vertex="1">
          <mxGeometry x="200" y="187" width="100" height="110" as="geometry" />
        </mxCell>
        <mxCell id="SYVp2LvqQkuV6gOD7tC8-18" value="" style="edgeStyle=orthogonalEdgeStyle;rounded=0;orthogonalLoop=1;jettySize=auto;html=1;" parent="1" source="SYVp2LvqQkuV6gOD7tC8-12" target="SYVp2LvqQkuV6gOD7tC8-11" edge="1">
          <mxGeometry relative="1" as="geometry" />
        </mxCell>
        <mxCell id="SYVp2LvqQkuV6gOD7tC8-12" value="" style="sketch=0;pointerEvents=1;shadow=0;dashed=0;html=1;strokeColor=none;fillColor=#505050;labelPosition=center;verticalLabelPosition=bottom;verticalAlign=top;outlineConnect=0;align=center;shape=mxgraph.office.concepts.website;" parent="1" vertex="1">
          <mxGeometry x="60" y="206.25" width="60" height="71.5" as="geometry" />
        </mxCell>
        <mxCell id="SYVp2LvqQkuV6gOD7tC8-13" value="API Server" style="whiteSpace=wrap;html=1;aspect=fixed;dashed=1;dashPattern=12 12;" parent="1" vertex="1">
          <mxGeometry x="373" y="189.5" width="105" height="105" as="geometry" />
        </mxCell>
        <mxCell id="SYVp2LvqQkuV6gOD7tC8-21" value="" style="edgeStyle=orthogonalEdgeStyle;rounded=0;orthogonalLoop=1;jettySize=auto;html=1;" parent="1" source="SYVp2LvqQkuV6gOD7tC8-15" target="SYVp2LvqQkuV6gOD7tC8-20" edge="1">
          <mxGeometry relative="1" as="geometry" />
        </mxCell>
        <mxCell id="SYVp2LvqQkuV6gOD7tC8-15" value="API Server" style="whiteSpace=wrap;html=1;aspect=fixed;dashed=1;dashPattern=12 12;" parent="1" vertex="1">
          <mxGeometry x="400" y="203.5" width="105" height="105" as="geometry" />
        </mxCell>
        <mxCell id="SYVp2LvqQkuV6gOD7tC8-26" value="" style="edgeStyle=orthogonalEdgeStyle;rounded=0;orthogonalLoop=1;jettySize=auto;html=1;entryX=0;entryY=0;entryDx=0;entryDy=52.5;entryPerimeter=0;" parent="1" source="SYVp2LvqQkuV6gOD7tC8-17" target="SYVp2LvqQkuV6gOD7tC8-7" edge="1">
          <mxGeometry relative="1" as="geometry" />
        </mxCell>
        <mxCell id="SYVp2LvqQkuV6gOD7tC8-17" value="Backend Worker Service" style="rounded=0;whiteSpace=wrap;html=1;" parent="1" vertex="1">
          <mxGeometry x="700" y="334.7" width="120" height="60" as="geometry" />
        </mxCell>
        <mxCell id="SYVp2LvqQkuV6gOD7tC8-22" value="" style="edgeStyle=orthogonalEdgeStyle;rounded=0;orthogonalLoop=1;jettySize=auto;html=1;" parent="1" source="SYVp2LvqQkuV6gOD7tC8-20" target="SYVp2LvqQkuV6gOD7tC8-17" edge="1">
          <mxGeometry relative="1" as="geometry" />
        </mxCell>
        <mxCell id="SYVp2LvqQkuV6gOD7tC8-20" value="" style="sketch=0;aspect=fixed;pointerEvents=1;shadow=0;dashed=0;html=1;strokeColor=none;labelPosition=center;verticalLabelPosition=bottom;verticalAlign=top;align=center;fillColor=#00188D;shape=mxgraph.azure.queue_generic" parent="1" vertex="1">
          <mxGeometry x="570" y="267.5" width="90" height="27" as="geometry" />
        </mxCell>
        <mxCell id="SYVp2LvqQkuV6gOD7tC8-24" value="" style="edgeStyle=orthogonalEdgeStyle;rounded=0;orthogonalLoop=1;jettySize=auto;html=1;exitX=1;exitY=0.75;exitDx=0;exitDy=0;" parent="1" source="SYVp2LvqQkuV6gOD7tC8-17" target="SYVp2LvqQkuV6gOD7tC8-8" edge="1">
          <mxGeometry relative="1" as="geometry">
            <mxPoint x="840" y="440" as="sourcePoint" />
            <mxPoint x="900" y="293" as="targetPoint" />
          </mxGeometry>
        </mxCell>
        <mxCell id="SYVp2LvqQkuV6gOD7tC8-25" value="" style="endArrow=classic;html=1;rounded=0;entryX=0;entryY=0;entryDx=0;entryDy=27.5;entryPerimeter=0;exitX=1;exitY=0.5;exitDx=0;exitDy=0;" parent="1" source="SYVp2LvqQkuV6gOD7tC8-15" target="SYVp2LvqQkuV6gOD7tC8-7" edge="1">
          <mxGeometry width="50" height="50" relative="1" as="geometry">
            <mxPoint x="400" y="240" as="sourcePoint" />
            <mxPoint x="450" y="190" as="targetPoint" />
          </mxGeometry>
        </mxCell>
        <mxCell id="SYVp2LvqQkuV6gOD7tC8-32" value="Cache data for quick access" style="sketch=0;outlineConnect=0;fontColor=#232F3E;gradientColor=none;strokeColor=#232F3E;fillColor=#ffffff;dashed=0;verticalLabelPosition=bottom;verticalAlign=top;align=center;html=1;fontSize=12;fontStyle=0;aspect=fixed;shape=mxgraph.aws4.resourceIcon;resIcon=mxgraph.aws4.cache_node;" parent="1" vertex="1">
          <mxGeometry x="422.5" y="334.7" width="60" height="60" as="geometry" />
        </mxCell>
        <mxCell id="SYVp2LvqQkuV6gOD7tC8-33" value="" style="endArrow=classic;html=1;rounded=0;exitX=0;exitY=0.5;exitDx=0;exitDy=0;" parent="1" source="SYVp2LvqQkuV6gOD7tC8-17" target="SYVp2LvqQkuV6gOD7tC8-32" edge="1">
          <mxGeometry width="50" height="50" relative="1" as="geometry">
            <mxPoint x="340" y="260" as="sourcePoint" />
            <mxPoint x="390" y="210" as="targetPoint" />
          </mxGeometry>
        </mxCell>
        <mxCell id="SYVp2LvqQkuV6gOD7tC8-34" value="" style="endArrow=classic;html=1;rounded=0;exitX=0.5;exitY=1;exitDx=0;exitDy=0;" parent="1" source="SYVp2LvqQkuV6gOD7tC8-15" target="SYVp2LvqQkuV6gOD7tC8-32" edge="1">
          <mxGeometry width="50" height="50" relative="1" as="geometry">
            <mxPoint x="710" y="360" as="sourcePoint" />
            <mxPoint x="495" y="360" as="targetPoint" />
          </mxGeometry>
        </mxCell>
        <mxCell id="SYVp2LvqQkuV6gOD7tC8-36" value="Backend Worker Service" style="rounded=0;whiteSpace=wrap;html=1;" parent="1" vertex="1">
          <mxGeometry x="690" y="360" width="120" height="60" as="geometry" />
        </mxCell>
        <mxCell id="SYVp2LvqQkuV6gOD7tC8-37" value="SYSTEM" style="text;html=1;strokeColor=none;fillColor=none;align=center;verticalAlign=middle;whiteSpace=wrap;rounded=0;" parent="1" vertex="1">
          <mxGeometry x="160" y="60" width="60" height="30" as="geometry" />
        </mxCell>
      </root>
    </mxGraphModel>
  </diagram>
</mxfile>
